<?xml version="1.0" encoding="utf-8"?>
<!-- Generator: Adobe Adobe Illustrator 24.2.0, SVG Export Plug-In . SVG Version: 6.00 Build 0)  -->
<svg version="1.1" id="Layer_1" xmlns="http://www.w3.org/2000/svg" xmlns:xlink="http://www.w3.org/1999/xlink" x="0px" y="0px"
	 width="1728px" height="1296px" viewBox="0 0 1728 1296" style="enable-background:new 0 0 1728 1296;" xml:space="preserve">
<style type="text/css">
	.st0{fill:#FF5752;}
	.st1{fill:#FFFFFF;stroke:#FFFFFF;stroke-width:3;stroke-miterlimit:10;}
	.st2{fill:none;stroke:#EBEBEB;stroke-width:12;stroke-miterlimit:10;}
	.st3{fill:#E0BB90;stroke:#DBB284;stroke-width:10;stroke-miterlimit:10;stroke-dasharray:0,0,0,0,0,0;}
	.st4{fill:none;stroke:#E0ADED;stroke-width:10;stroke-miterlimit:10;}
	.st5{fill:none;stroke:#E0ADED;stroke-width:5;stroke-miterlimit:10;}
	.st6{fill:none;stroke:#D19BDE;stroke-width:5;stroke-miterlimit:10;}
	.st7{fill:#FFFFFF;stroke:#EBEBEB;stroke-width:5;stroke-miterlimit:10;}
	.st8{fill:none;stroke:#FFF7F7;stroke-width:3;stroke-miterlimit:10;}
	.st9{fill:none;stroke:#FFFFFF;stroke-width:3;stroke-miterlimit:10;}
	.st10{fill:none;stroke:#FFFFFF;stroke-miterlimit:10;}
	.st11{fill:none;stroke:#EBEBEB;stroke-width:3;stroke-miterlimit:10;}
</style>
<g id="Layer_2">
	<rect x="414.6" y="164.69" class="st0" width="900" height="900"/>
</g>
<path class="st1" d="M1015.96,640.7c30.77,3.33,62.78-7.35,85.38-28.5c5.85-5.47,11.1-11.6,17.43-16.5
	c6.33-4.9,14.08-8.57,22.07-8.03c8.09,0.54,15.22,5.22,21.96,9.73c19.15,12.79,38.6,25.41,59.89,34.2c5.02,2.07,10.25,4,14.37,7.54
	c4.12,3.55,6.94,9.2,5.47,14.44c-37.33,5.69-74.04,14.81-110.68,23.92c-11.27,2.8-22.55,5.6-33.64,9.05
	c-11.96,3.72-23.71,8.2-35.88,11.16c-22.87,5.56-47.06,5.62-69.96,0.18"/>
<path class="st1" d="M490.02,629.71c-13.47,6.54-28.92,8.79-43.65,6.35c12.63,10.71,27.86,18.23,43.95,21.69
	c16.09,3.46,33,2.85,50.04-1.19c-7.77,10.74-19.3,18.6-32.02,21.82c12.17-2.75,24.37,3.2,36.09,7.53
	c13.05,4.82,26.95,7.78,40.81,6.85c13.86-0.93,27.69-5.96,37.73-16.12c-0.35,12.87-8.3,25.23-19.76,30.7
	c19.43,2.74,38.82,6.7,58.44,6.41s39.92-5.29,54.73-18.39"/>
<path class="st1" d="M1241.06,638.4c13.82,6.38,29.67,8.57,44.78,6.2c-12.96,10.45-28.58,17.78-45.08,21.16
	c-16.5,3.37-33.86,2.78-51.34-1.17c7.97,10.48,19.8,18.15,32.85,21.29c-12.49-2.68-25,3.12-37.02,7.35
	c-13.39,4.71-27.65,7.59-41.87,6.69s-28.41-5.81-38.71-15.73c0.36,12.56,8.52,24.62,20.27,29.95c-19.93,2.67-39.83,6.53-59.95,6.25
	c-20.12-0.28-40.96-5.16-56.15-17.94"/>
<path class="st2" d="M1013.41,639.62c31.03,3.48,61.98-6.96,85.51-28.86c8.25-7.67,15.85-16.86,25.84-20.98
	c12.94-5.34,28.01-1.28,41.23,6c13.23,7.28,25.32,17.63,38.25,25.76s27.41,14.13,41.1,11.57"/>
<path class="st1" d="M487.53,630.19c29.37-14.47,58.75-28.94,88.12-43.4c6.43-3.17,13.34-6.42,20.45-5.5
	c9.25,1.2,15.99,8.96,22.63,15.52c25.35,25.04,61.87,38.32,97.38,35.42c-4.48,20.83-6.99,42.09-7.48,63.39"/>
<path class="st2" d="M717.94,631.38c-31.27,3.57-62.54-6.8-86.41-28.64c-8.36-7.66-16.09-16.82-26.19-20.92
	c-13.08-5.31-28.25-1.21-41.54,6.12c-13.29,7.32-25.42,17.7-38.41,25.87c-12.99,8.17-27.55,14.21-41.37,11.68"/>
<ellipse class="st3" cx="862.34" cy="680.37" rx="154" ry="151"/>
<ellipse cx="802.62" cy="670.77" rx="27" ry="26.5"/>
<ellipse cx="921.62" cy="672.77" rx="27" ry="26.5"/>
<path class="st4" d="M821.91,509.31c26.92-0.23,53.85-0.47,80.77-0.7"/>
<path class="st5" d="M821.88,499.52c26.92-0.23,53.85-0.47,80.77-0.7"/>
<path class="st5" d="M823.31,455.81c0.27,14.13,0.55,28.27,0.82,42.4"/>
<path class="st5" d="M823.95,457.04c8.3,11.44,16.61,22.88,24.91,34.32"/>
<path class="st5" d="M862.01,452.2c-4.25,13.48-8.5,26.96-12.74,40.45"/>
<path class="st5" d="M862.6,452.19c4.12,13.52,8.24,27.04,12.35,40.57"/>
<path class="st5" d="M899.36,457.84c-7.91,11.71-15.82,23.43-23.73,35.14"/>
<path class="st5" d="M899.81,456.53c0.23,14.13,0.46,28.27,0.68,42.4"/>
<path class="st6" d="M822.03,513.53c26.92-0.23,53.85-0.47,80.77-0.7"/>
<path class="st5" d="M826.98,463.03c0.39,9.14,0.78,18.28,1.17,27.42c0.05,1.28,0.12,2.6,0.65,3.78s1.65,2.17,2.93,2.16
	c-1.74,0.24-3.48,0.48-5.22,0.73c2.24-9.29,3.58-18.79,3.98-28.34c1.36,2.55,0.38,6.12,2.38,8.22c0.71,0.74,1.68,1.16,2.59,1.65
	c3.83,2.08,6.62,5.67,8.79,9.45"/>
<path class="st5" d="M833.76,472.85c-1.97,3.31-1.87,7.41-1.71,11.26c0.2,4.63,0.39,9.26,0.59,13.88c1.43-0.58,2.87-1.15,4.3-1.73
	c-1.21-5.18-1.67-10.53-1.36-15.83"/>
<path class="st5" d="M837.9,481.79c-0.24,4.53,0.37,9.11,1.79,13.42c0.48,1.47,1.18,3.04,2.58,3.71"/>
<path class="st5" d="M839.98,483.74c1.27,2.44,1.76,5.19,2.4,7.87c0.64,2.67,1.5,5.4,3.32,7.46"/>
<path class="st5" d="M843.97,487.75c0.2,1.19,0.2,2.86,0.99,3.84c0.27,0.33,0.52,0.68,0.78,1.02c0.7,0.9,1.31,1.75,1.76,2.81
	c0.71,1.66,1.45,3.2,2.9,4.34"/>
<path class="st5" d="M849.12,491.23c0.79,3.14,1.59,6.28,2.38,9.42"/>
<path class="st5" d="M859.95,462.71c-2.42,9.15-4.23,18.47-5.42,27.86c2.19-1.23,4.77-1.76,7.27-1.46c2.69,0.32,5.5,1.52,7.98,0.44
	c-1.57-5.8-4.87-10.98-6.95-16.62c-1.34-3.63-2.16-7.45-2.43-11.31c0.51,6.05,1,12.29-0.8,18.09c-0.87,2.79-2.27,5.7-1.45,8.5
	c1.15-1.11,2.31-2.23,3.46-3.34c0.8,0.38,1.29,1.17,1.96,1.75s1.77,0.9,2.37,0.25c0.44-0.47,0.38-1.21,0.19-1.82
	c-0.37-1.23-1.15-2.33-2.17-3.1c-0.66-0.49-1.45-0.87-1.91-1.55c-1-1.45-0.12-3.4,0.77-4.92"/>
<path class="st5" d="M875.32,495.58c7.03,0.46,14.07,0.91,21.1,1.37c0.44,0.03,0.95,0.03,1.24-0.31c0.22-0.26,0.23-0.64,0.22-0.98
	c-0.2-9.95-0.41-19.91-0.61-29.86c-5.68,9.35-12,18.31-18.9,26.8c5.36,1.16,10.91,1.05,16.39,0.92c0.53-7.1,0.81-14.23,0.83-21.35
	c-1.98,6.99-7.1,12.59-12.06,17.9c3.13,0.8,6.43,0.31,9.62-0.19c0.17-2.71,0.34-5.43,0.52-8.14c-1.32,2.14-2.63,4.27-3.95,6.41"/>
<path class="st5" d="M891.67,486.08c-1.74,1.17-3.47,2.35-5.21,3.52"/>
<path class="st5" d="M864.49,453.62c-1.44-0.15-2.86-0.12-4.26,0.08"/>
<path class="st5" d="M845.55,495.57c13.32-0.62,26.64-1.25,39.96-1.87"/>
<path class="st5" d="M857.8,497.49c8.46-0.58,16.92-1.17,25.38-1.75"/>
<path class="st5" d="M849.56,492.3c5.95-0.16,11.9-0.33,17.85-0.49c2.02-0.06,4.08-0.11,6.03,0.44"/>
<path class="st5" d="M860.82,456.67c4.5,9.94,8.05,20.32,10.58,30.94"/>
<path class="st7" d="M757.48,539.78c-2.99,6.99-6.9,13.75-11.62,20.14c-0.86,1.16-1.86,2.38-3.38,2.86c-1.88,0.6-3.97-0.2-5.12-1.45
	c-1.16-1.25-1.6-2.87-2-4.44c-1.66-6.36-3.51-13.06-8.96-17.6c-2.1-1.75-4.82-3.3-5.4-5.76c-0.43-1.8,0.43-3.72,1.58-5.38
	c1.41-2.04,3.49-3.96,6.19-4.6c2.49-0.59,5.05,0.02,7.45,0.62c4.55,1.15,9.11,2.3,13.66,3.45"/>
<path class="st7" d="M773.2,530.57c7.37,1.88,15.11,2.89,23.05,3.03c1.44,0.02,3.02-0.02,4.33-0.94c1.62-1.13,2.26-3.27,1.97-4.95
	c-0.29-1.68-1.31-3.01-2.3-4.29c-4.04-5.19-8.24-10.73-8.52-17.82c-0.11-2.73,0.32-5.83-1.29-7.79c-1.17-1.43-3.21-1.93-5.23-2.02
	c-2.48-0.12-5.27,0.36-7.41,2.12c-1.98,1.62-3.06,4.02-4.03,6.29c-1.86,4.31-3.72,8.62-5.58,12.94"/>
<path class="st7" d="M951.1,530.02c-7.26,2.26-14.94,3.68-22.86,4.23c-1.44,0.1-3.02,0.13-4.37-0.71c-1.67-1.04-2.42-3.15-2.22-4.84
	s1.15-3.08,2.07-4.41c3.76-5.39,7.66-11.15,7.57-18.24c-0.04-2.73-0.62-5.8,0.88-7.85c1.1-1.49,3.11-2.09,5.12-2.29
	c2.47-0.25,5.28,0.08,7.51,1.72c2.06,1.52,3.26,3.86,4.36,6.07c2.08,4.21,4.16,8.42,6.25,12.63"/>
<ellipse transform="matrix(0.9315 -0.3637 0.3637 0.9315 -140.0367 313.4044)" class="st7" cx="762.17" cy="528.54" rx="11.12" ry="11.25"/>
<path class="st7" d="M968.31,535.99c3.35,6.82,7.61,13.37,12.66,19.5c0.92,1.11,1.98,2.28,3.52,2.68c1.91,0.5,3.95-0.41,5.04-1.72
	c1.09-1.31,1.44-2.95,1.77-4.54c1.32-6.44,2.82-13.23,8.03-18.04c2.01-1.86,4.64-3.54,5.09-6.04c0.33-1.82-0.62-3.69-1.86-5.29
	c-1.52-1.96-3.69-3.77-6.42-4.27c-2.52-0.45-5.04,0.29-7.4,1.01c-4.49,1.39-8.97,2.77-13.46,4.16"/>
<ellipse transform="matrix(0.4725 -0.8813 0.8813 0.4725 43.9712 1126.0321)" class="st7" cx="962.69" cy="526.28" rx="11.25" ry="11.12"/>
<path class="st8" d="M707.88,785.68c-9.48,27.37-18.96,54.74-28.44,82.1c7.32-12.98,22.69-20.44,37.95-21.61
	c15.26-1.17,30.45,3.16,44.49,9.04s27.34,13.35,41.48,19.02c39.06,15.63,84.2,16.58,123.92,2.61
	c39.73-13.97,73.66-42.73,93.15-78.96"/>
<path class="st9" d="M713.92,828.22c-5.6,1.55-10.06,6.38-10.93,11.85c-0.23,1.46-0.19,3.07,0.76,4.23
	c0.92,1.13,2.57,1.59,4.06,1.35s2.82-1.07,3.86-2.11c1.72-1.73,2.71-4.03,3.18-6.36c0.47-2.33,0.46-4.72,0.53-6.99
	c0.3,2.77,0.62,5.58,1.77,8.13c1.15,2.55,3.27,4.86,6.09,5.6"/>
<path class="st9" d="M725.61,827.52c1.55,4.72,3.09,9.43,4.64,14.15c2.27-4.99,4.54-9.99,6.8-14.98"/>
<path class="st9" d="M763.69,826.8c-3.21,8.01-6.43,16.01-9.61,23.95c3.38-7.42,6.93-15.09,13.88-21.01
	c1.85-1.58,4.31-3.12,6.94-2.9c2.84,0.24,4.6,2.65,4.1,4.86c-0.5,2.21-2.76,4.07-5.35,5.19c-2.59,1.11-5.49,1.6-8.35,2.07
	c2.88,1.02,5.59,2.51,7,4.69s1.24,5.15-1.05,7.06c-1.84,1.54-4.7,2.13-7.31,2.02c-2.61-0.11-5.04-0.84-7.43-1.55"/>
<path class="st9" d="M779.48,850.94c1.57,0.63,2.99,1.55,4.52,2.25c1.53,0.71,3.25,1.21,4.92,0.9s3.23-1.6,3.34-3.23
	c0.11-1.56-1.08-2.96-2.46-3.79c-3.28-1.99-7.95-1.49-10.7,1.14c-2.75,2.63-3.31,7.14-1.28,10.32c2.03,3.18,6.44,4.73,10.12,3.55"/>
<path class="st9" d="M838.71,872.86c1.69,0.12,3.34,0.56,5.03,0.77s3.48,0.16,4.96-0.63s2.55-2.49,2.12-4.08
	c-0.41-1.52-1.99-2.48-3.56-2.86c-3.76-0.9-8.03,0.98-9.79,4.32s-0.83,7.78,2.13,10.19c2.96,2.41,7.66,2.55,10.76,0.31"/>
<path class="st9" d="M831.41,864.8c-1.75,5.08-3.51,10.16-5.26,15.23"/>
<path class="st9" d="M869.03,868.78c-3.44-1.5-7.8-1.04-10.77,1.15c-1.28,0.94-2.37,2.43-1.91,3.87c0.39,1.24,1.81,2,3.19,2.22
	c1.55,0.25,3.14-0.02,4.72-0.07s3.28,0.16,4.42,1.16c1.72,1.51,1.32,4.35-0.44,5.82c-1.76,1.47-4.42,1.73-6.73,1.2
	c-2.31-0.53-4.36-1.72-6.37-2.9"/>
<path class="st9" d="M799.93,850.32c-2.99,5.77-5.72,11.67-8.18,17.69"/>
<path class="st9" d="M797.96,855.84c1.33-0.2,2.67-0.39,4.01-0.3c1.34,0.09,2.71,0.5,3.72,1.38c1.02,0.88,1.62,2.28,1.31,3.57"/>
<path class="st9" d="M815.79,856.92c-2.99,5.77-5.72,11.67-8.18,17.69"/>
<path class="st9" d="M813.82,862.44c1.33-0.2,2.67-0.39,4.01-0.3c1.34,0.09,2.71,0.5,3.72,1.38s1.62,2.28,1.31,3.57"/>
<path class="st10" d="M830.9,858.6c1,1.1,1.43,2.66,1.44,3.88c0.7-0.99,1.78-1.72,2.98-2.01"/>
<path class="st10" d="M831.3,858.72c1.55-0.48,2.86-1.64,3.49-3.08c0.15,0.87,0,1.75,0.01,2.63c0.02,0.88,0.26,1.83,0.98,2.36"/>
<path class="st11" d="M528.99,668.13c10.11-8.34,18.4-18.86,24.16-30.64"/>
<path class="st11" d="M615.47,696.49c5.72-9.46,8.65-20.59,8.32-31.64"/>
<path class="st11" d="M1116.18,707.7c-3.97-3.29-6.66-7.92-8.39-12.78c-1.73-4.86-2.59-9.98-3.43-15.07"/>
<path class="st11" d="M1201.19,674.76c-3.91-2.44-7.18-5.82-9.86-9.58s-4.79-7.88-6.69-12.08"/>
</svg>
