<?xml version="1.0" encoding="utf-8"?>
<!-- Generator: Adobe Adobe Illustrator 24.2.0, SVG Export Plug-In . SVG Version: 6.00 Build 0)  -->
<svg version="1.1" id="Layer_1" xmlns="http://www.w3.org/2000/svg" xmlns:xlink="http://www.w3.org/1999/xlink" x="0px" y="0px"
	 width="1728px" height="1296px" viewBox="0 0 1728 1296" style="enable-background:new 0 0 1728 1296;" xml:space="preserve">
<style type="text/css">
	.st0{fill:#FF5C5C;stroke:#000000;stroke-width:5;stroke-miterlimit:10;}
	.st1{fill:none;stroke:#D43F3F;stroke-width:10;stroke-miterlimit:10;}
	.st2{fill:#FF6E6E;stroke:#000000;stroke-width:5;stroke-miterlimit:10;}
	.st3{fill:none;stroke:#000000;stroke-width:5;stroke-miterlimit:10;stroke-dasharray:0,0,0,0,0,0;}
</style>
<path class="st0" d="M972.13,684.61c64.74-62.97,137.79-117.53,216.69-161.83c57.77-32.44,119.91-59.74,185.91-66.85
	c37.49-4.04,81.48,1.7,102.06,33.07c8.41,12.82,11.64,28.3,13.3,43.51c9.1,83.48-23.93,164.91-43.44,246.6
	c-21.99,92.07-26.95,188.12-14.58,281.96c3.5,26.54,8.18,54.6-2.39,79.21c-9.88,23-32.13,39.19-56.21,46.59
	c-24.07,7.4-49.91,6.94-74.94,4.04c-39.09-4.53-77.97-15.1-111.58-35.43c-39.23-23.73-69.44-59.51-96.79-96.14
	c-42.79-57.31-80.48-118.37-112.47-182.23"/>
<path class="st0" d="M820.51,689.49c-60.42-67.13-129.69-126.41-205.48-175.85c-55.49-36.2-115.69-67.56-181.07-79.03
	c-37.14-6.52-81.41-3.71-104.03,26.23c-9.25,12.24-13.49,27.47-16.16,42.54c-14.62,82.69,12.94,166.14,26.99,248.94
	c15.83,93.33,14.42,189.5-4.15,282.31c-5.25,26.25-11.79,53.94-2.86,79.2c8.34,23.61,29.46,41.24,52.99,50.22
	c23.53,8.98,49.34,10.24,74.51,9c39.3-1.93,78.8-9.89,113.68-27.95c40.71-21.08,73.23-54.78,102.96-89.51
	c46.5-54.34,88.15-112.77,124.31-174.37"/>
<path class="st1" d="M785.19,726.28c-38.65-5.97-75.01-39.68-96-89"/>
<path class="st1" d="M1009.19,743.28c41.47-5.97,80.48-39.68,103-89"/>
<path class="st3" d="M511.44,355.32c-19.21-20.77-51.47-25.96-74.11-11.92c-4.95,3.07-9.82,7.73-9.9,13.93
	c-0.07,5.66,3.92,10.68,8.31,14.13c7.26,5.71,15.96,8.7,24.4,11.89s17.06,6.84,23.6,13.47s10.53,17.01,7.49,25.66
	c-2.04,5.82-6.91,9.99-12.27,12.44c-12.75,5.83-28.58,2.73-40.36-6.15c-11.78-8.88-19.7-22.88-23.39-37.55"/>
<path class="st3" d="M517.58,394.92c-7.06,18.24-13.38,36.82-18.93,55.68"/>
<path class="st3" d="M507.31,423.23c2.78-6.2,8.07-11,14.21-12.9c2.75-0.85,5.83-1.11,8.41,0.3c3.14,1.71,4.88,5.59,5.18,9.36
	c0.3,3.76-0.6,7.49-1.49,11.12c2.98-3.32,6.49-6.07,10.35-8.09c4.76-2.5,11.3-3.49,14.82,0.88c3.45,4.29,1.81,10.8-0.06,16.03
	c-3.96,11.09-8.11,22.1-12.48,32.97"/>
<path class="st3" d="M589.32,436.12c-7.82,14.97-15.22,30.2-22.17,45.66"/>
<path class="st3" d="M589.25,420.21c1.6,1.31,2.74,3.27,3.16,5.42c0.42,2.15,0.1,4.46-0.87,6.4c1.07-2,2.76-3.86,4.82-4.84
	c2.05-0.98,4.44-1.06,6.31-0.72c-3.42-3.31-4.96-8.8-3.84-13.69c-2.6,3.48-6.18,6.05-10.08,7.39c-0.06,0.04-0.12,0.08-0.18,0.11"/>
<path class="st3" d="M653.37,429.09c-24.73,16.97-45.5,40.72-59.65,68.22"/>
<path class="st3" d="M609.69,443.66c7.83,9.31,16.35,17.95,25.46,25.82"/>
<path class="st3" d="M680.07,484.71c-6.85-6.3-16.37-9.31-25.43-7.54c-9.06,1.77-17.4,8.46-21.17,17.54
	c-3.77,9.08-2.63,20.27,3.21,27.65c5.84,7.37,16.24,10.29,24.8,6.68"/>
<path class="st3" d="M720.83,469.04c-17.75,25.32-35.51,50.64-53.26,75.97c4.05-7.07,8.35-14.41,14.97-18.68
	c6.61-4.26,16.25-4.23,20.79,2.31c3.98,5.73,2.69,14.03-0.23,20.58c-2.92,6.55-7.26,12.41-9.28,19.33"/>
<path class="st3" d="M726.6,556.35c4.16,1.59,8.7,2.89,13.64,2.25c4.94-0.63,10.36-3.63,12.53-8.05c2.02-4.13,0.64-8.66-2.7-10.87
	c-3.35-2.22-8.3-2.31-12.89-0.88c-4.6,1.43-8.86,4.24-12.56,7.47c-5.92,5.18-10.67,11.74-12.36,18.55s-0.01,13.8,5.17,17.56
	c5.17,3.76,13.92,3.69,20.44-0.82c0.47-0.25,0.95-0.51,1.42-0.76"/>
<path class="st3" d="M777.67,561.79c-11.96,14.29-23.93,28.58-35.89,42.86c5.28-5.97,9.94-12.84,15.41-18.52
	c5.47-5.68,12.01-10.21,19.12-10.42s14.77,4.78,17.52,13.45"/>
<path class="st3" d="M833.51,609.79c-5.11-9.52-13.5-16.4-22.45-18.42c-4.18-0.94-9.14-0.44-11.31,3.84
	c-1.58,3.11-1.13,7.38,0.26,10.84s3.58,6.35,5.6,9.34c4.44,6.57,8.3,14.91,6.92,22.92c-1.25,7.26-6.88,12.41-12.94,12.93
	c-6.06,0.53-12.25-3.08-16.69-8.56c-4.44-5.49-7.25-12.68-8.89-20.03"/>
<path class="st1" d="M778.21,781.56c-45.67-4.5-91.33-9-137-13.5"/>
<path class="st1" d="M1156.21,814.56c-45.67-4.5-91.33-9-137-13.5"/>
<path class="st1" d="M777.13,839.39c-28.34-8.88-57.56,28.09-78,98.7"/>
<path class="st1" d="M1002.13,841.39c28.7-8.88,58.3,28.09,79,98.7"/>
<path class="st2" d="M917.79,662.57c66.07,14.62,112.54,83.97,98.23,148.67S933.54,925.5,867.23,911.94
	c-66.3-13.56-114.3-84.53-101.07-149.45c13.23-64.92,85.33-112.33,151.85-99.83"/>
</svg>
