<?xml version="1.0" encoding="utf-8"?>
<!-- Generator: Adobe Adobe Illustrator 24.2.0, SVG Export Plug-In . SVG Version: 6.00 Build 0)  -->
<svg version="1.1" id="Layer_1" xmlns="http://www.w3.org/2000/svg" xmlns:xlink="http://www.w3.org/1999/xlink" x="0px" y="0px"
	 width="1728px" height="1296px" viewBox="0 0 1728 1296" style="enable-background:new 0 0 1728 1296;" xml:space="preserve">
<style type="text/css">
	.st0{fill:#92F0B8;}
	.st1{fill:#7FAD91;}
	.st2{fill:#92F0B8;stroke:#648545;stroke-width:5;stroke-miterlimit:10;}
	.st3{fill:#7FAD91;stroke:#526352;stroke-width:5;stroke-miterlimit:10;}
	.st4{fill:#7FAD91;stroke:#526354;stroke-width:5;stroke-miterlimit:10;}
	.st5{fill:none;stroke:#000000;stroke-width:3;stroke-miterlimit:10;}
	.st6{fill:#D3BCD4;stroke:#84628A;stroke-width:5;stroke-miterlimit:10;}
	.st7{fill:none;stroke:#F05454;stroke-width:15;stroke-miterlimit:10;}
	.st8{fill:#FFF370;}
</style>
<path class="st0" d="M1011.55,402.9c13.28-18.4,28.76-35.21,46-49.96c5.44-4.66,11.06-9.11,16.67-13.56
	c0.86-0.69,1.76-1.39,2.83-1.66c1.13-0.28,2.32-0.05,3.44,0.27c9.56,2.78,15.96,11.77,20.02,20.85
	c8.98,20.05,10.15,43.23,4.66,64.51c-5.5,21.27-17.43,40.64-32.93,56.2"/>
<path class="st1" d="M765.8,207.68c-1.87-0.36-3.13-2.26-3.37-4.15c-0.24-1.89,0.32-3.78,0.87-5.61c0.84-2.79,1.75-5.69,3.74-7.81
	c2.71-2.9,7-3.83,10.97-3.55s7.77,1.6,11.62,2.55c9.53,2.35,19.47,2.46,29.1,4.36c8.63,1.71,16.9,4.83,25.12,7.95
	c20.08,7.6,40.17,15.21,60.25,22.81c3.21,1.22,6.61,2.57,8.61,5.36c1.71,2.39,2.12,5.48,2.02,8.42c-0.08,2.51-0.5,5.03-1.45,7.35
	c-1.61,3.93-4.65,7.11-8,9.72c-12.54,9.77-29.1,12.28-44.85,14.46"/>
<path class="st1" d="M944.05,251.92c15.13,0.53,29.94,4.58,44.21,9.64c6.41,2.27,12.75,4.76,19.08,7.24
	c2.65,1.04,5.29,2.08,7.94,3.11c0.86,0.34,1.73,0.68,2.44,1.27c0.71,0.58,1.22,1.37,1.83,2.05c1.61,1.8,3.89,2.81,5.92,4.13
	c2.02,1.32,3.96,3.22,4.13,5.63c0.2,2.72-2,5.15-4.53,6.16c-2.53,1.01-5.35,0.95-8.08,0.96c-17.06,0.07-34.51,3.67-50.95-0.9
	c-4.38-1.22-8.58-2.99-12.93-4.31c-3.73-1.13-7.55-1.91-11.36-2.77c-1.16-0.26-2.35-0.54-3.36-1.18c-1.24-0.78-2.11-2.02-2.96-3.21
	c-3.2-4.45-6.79-8.67-11.07-12.08c-1.01-0.8-2.16-1.79-2.03-3.07"/>
<path class="st0" d="M1026.61,397.21c-2.15,4.48-6.04,8.02-10.56,10.09c-2.05,0.94-4.4,1.73-5.81,4.44
	c-6.94-1.49-13.05-5.45-19.26-8.88c-5.86-3.24-11.96-6.06-18.23-8.42c-7.52-2.84-15.26-5.03-23-7.21
	c-24.85-7.02-49.7-14.04-74.55-21.05c-3.73-1.05-7.75-2.3-10-5.46c-1.13-1.59-1.68-3.51-2.22-5.38
	c-5.87-20.67-11.74-41.35-17.61-62.02c-2.92-10.27-5.86-20.74-5.56-31.42c0.06-2.07,0.31-4.3,1.69-5.85
	c1.74-1.94,4.66-2.16,7.27-2.24c15.33-0.47,31-0.91,45.65,3.65c12.33,3.83,23.31,11,34.1,18.08c23.67,15.53,47.33,31.06,71,46.58
	c4.73,3.1,9.46,6.21,14.2,9.31"/>
<path class="st2" d="M835.27,248.43c30.47-5.51,60.93-11.02,91.4-16.53c14.58,13.45,14.88,37.27,30.64,49.44
	c14.34,11.08,35.07,8.01,53.43,6.1c34.94-3.62,70.62-0.73,104.42,8.46c-33.98,34.74-67.97,69.48-101.95,104.22"/>
<path class="st3" d="M758.3,188.36c26.94-6.11,53.88-12.21,80.82-18.32c1.41,11.03,10.7,19.76,20.88,25.18s20.59,8.42,30.91,13.58
	c10.32,5.16,20,13.32,22.31,24.21"/>
<path class="st0" d="M819.03,302.55c5.75,3.41,12.38,5.26,17.85,9.11c3.32,2.33,6.1,5.32,8.86,8.28c4.37,4.69,8.73,9.38,13.1,14.07
	c2.78,2.98,5.66,6.15,6.64,10.11c1.22,4.9-0.7,9.97-2.59,14.65c-1.73,4.3-3.71,8.89-7.69,11.28c-1.76,1.05-3.77,1.58-5.75,2.09
	c-9.06,2.35-18.11,4.7-27.17,7.04c-5.34,1.39-10.81,2.78-16.31,2.37c-4.52-0.34-8.86-1.88-13.13-3.4c0.25-0.4,0.49-0.79,0.74-1.19"
	/>
<path class="st2" d="M716.47,247.71c-3.3-36.68-1.19-73.79,6.24-109.91c6.04,20.61,18.9,39.79,37.58,51.67s43.36,15.75,64.27,7.94
	c16,50.24,32.01,100.48,48.01,150.71"/>
<path class="st2" d="M1074.68,338.14c12-1.49,25.7-2.32,34.4,7.69c5.59,6.43,7.75,15.97,11.97,23.76
	c5.69,10.5,27.04,15.29,36.91,19.38c9.87,4.09,20.35,5.53,30.73,6.93c-20.15,39.17-75.04,56.04-100.77,62.34"/>
<path class="st4" d="M938.23,250.72c16.61-0.82,33.19-2.21,49.68-4.17c14.34,14.29,30.29,27.33,47.32,39.09"/>
<path class="st5" d="M1099.47,720.8c1.05-0.4,2.11-0.79,3.16-1.18"/>
<path class="st6" d="M824.9,319.9c-60.72-49.54-114.43-89.95-184.55-74.05s-126.54,68.6-158.97,129.94s-43.69,130.81-48.86,199.32
	c-5.26,69.7-4.65,139.8,1.81,209.41c2.94,31.7,7.38,64.2,23.46,92.09c19.31,33.51,54.14,57.3,92.03,69.85s78.79,14.72,118.84,12.64
	c142.17-7.39,280.42-69.18,377.29-168.62c62.43-64.09,109.29-151.48,90.77-237.13c-11.65-53.87-48.44-100.94-94.83-133.67
	s-101.85-52.13-158.21-63.99"/>
<path class="st7" d="M525.9,491.01c-1.03,78.87-7.67,157.67-19.87,235.6c3.77-28.6,27.63-51.93,55.11-60.71
	c27.48-8.78,57.69-4.86,84.87,4.81c27.17,9.68,52,24.81,77.12,39c59.21,33.46,121.53,62.35,187.52,78.8
	c65.99,16.44,136.01,20.06,201.94,3.37c12.4-3.14,25-7.19,34.74-15.48c9.74-8.29,16.03-21.79,12.51-34.08
	c-2.93-10.22-12.04-17.75-21.98-21.53c-9.94-3.78-20.76-4.39-31.48-4.92c-0.21,0-0.43,0-0.64,0"/>
<path class="st7" d="M657.1,554.17c-30.09-12.15-68.82,6.97-85.41,42.17c-9.24,19.6-9.51,48.34,6.66,56.61
	c10.78,5.52,24.56-0.92,33.52-11.59c8.96-10.67,14.17-24.74,19.15-38.4c5.73-15.72,11.46-31.44,17.19-47.16
	c-12.86,50.45,8.27,106.61,46.51,126.91"/>
<path class="st7" d="M717.02,584.34c1.07,38.4,4.55,77.33,10.43,116.41c37.63-15.46,73.35-33.16,107.39-52.49"/>
<path class="st8" d="M729.04,324.28c-11.87,11.62-27.74,20.08-34.8,35.1c-6.21,13.21-4.18,28.62-2.03,43.05
	c0.38,2.58,1.07,5.57,4.02,6.85c14.67-12.81,24.98-29.75,35.05-46.41c2.1-3.47,4.24-7.04,4.93-11.04c0.95-5.45-0.9-10.96-2.72-16.18
	"/>
<path class="st8" d="M799.04,471.28c-11.87,11.63-27.74,20.1-34.8,35.15c-6.21,13.23-4.18,28.66-2.03,43.11
	c0.38,2.58,1.07,5.58,4.02,6.86c14.67-12.82,24.98-29.79,35.05-46.47c2.1-3.48,4.24-7.05,4.93-11.05c0.95-5.46-0.9-10.97-2.72-16.21
	"/>
<path class="st8" d="M585.04,394.28c-11.87,11.63-27.74,20.1-34.8,35.15c-6.21,13.23-4.18,28.66-2.03,43.11
	c0.38,2.58,1.07,5.58,4.02,6.86c14.67-12.82,24.98-29.79,35.05-46.47c2.1-3.48,4.24-7.05,4.93-11.05c0.95-5.46-0.9-10.97-2.72-16.21
	"/>
<path class="st8" d="M961.04,422.28c-11.87,11.63-27.74,20.1-34.8,35.15c-6.21,13.23-4.18,28.66-2.03,43.11
	c0.38,2.58,1.07,5.58,4.02,6.86c14.67-12.82,24.98-29.79,35.05-46.47c2.1-3.48,4.24-7.05,4.93-11.05c0.95-5.46-0.9-10.97-2.72-16.21
	"/>
<path class="st8" d="M646.04,698.28c-11.87,11.63-27.74,20.1-34.8,35.15c-6.21,13.23-4.18,28.66-2.03,43.11
	c0.38,2.58,1.07,5.58,4.02,6.86c14.67-12.82,24.98-29.79,35.05-46.47c2.1-3.48,4.24-7.05,4.93-11.05c0.95-5.46-0.9-10.97-2.72-16.21
	"/>
<path class="st8" d="M504.04,752.28c-11.87,11.63-27.74,20.1-34.8,35.15c-6.21,13.23-4.18,28.66-2.03,43.11
	c0.38,2.58,1.07,5.58,4.02,6.86c14.67-12.82,24.98-29.79,35.05-46.47c2.1-3.48,4.24-7.05,4.93-11.05c0.95-5.46-0.9-10.97-2.72-16.21
	"/>
<path class="st8" d="M1086.04,548.28c-11.87,11.63-27.74,20.1-34.8,35.15c-6.21,13.23-4.18,28.66-2.03,43.11
	c0.38,2.58,1.07,5.58,4.02,6.86c14.67-12.82,24.98-29.79,35.05-46.47c2.1-3.48,4.24-7.05,4.93-11.05c0.95-5.46-0.9-10.97-2.72-16.21
	"/>
<path class="st8" d="M835.04,800.28c-11.87,11.63-27.74,20.1-34.8,35.15c-6.21,13.23-4.18,28.66-2.03,43.11
	c0.38,2.58,1.07,5.58,4.02,6.86c14.67-12.82,24.98-29.79,35.05-46.47c2.1-3.48,4.24-7.05,4.93-11.05c0.95-5.46-0.9-10.97-2.72-16.21
	"/>
<path class="st8" d="M670.04,840.28c-11.87,11.63-27.74,20.1-34.8,35.15c-6.21,13.23-4.18,28.66-2.03,43.11
	c0.38,2.58,1.07,5.58,4.02,6.86c14.67-12.82,24.98-29.79,35.05-46.47c2.1-3.48,4.24-7.05,4.93-11.05c0.95-5.46-0.9-10.97-2.72-16.21
	"/>
<path class="st8" d="M947.04,623.28c-11.87,11.63-27.74,20.1-34.8,35.15c-6.21,13.23-4.18,28.66-2.03,43.11
	c0.38,2.58,1.07,5.58,4.02,6.86c14.67-12.82,24.98-29.79,35.05-46.47c2.1-3.48,4.24-7.05,4.93-11.05c0.95-5.46-0.9-10.97-2.72-16.21
	"/>
<path class="st7" d="M434.03,533.24c-8.78,0.1-23.37,2.89-25.04,13.53c-1.8,11.47,15.66,13.52,23.4,13.55
	c26.37,0.1,47.17-18.28,63.77-36.81c5.83-6.5,11.31-13.34,17.59-19.42c5.26-5.1,11.81-10.44,19.61-9.69"/>
</svg>
