<?xml version="1.0" encoding="utf-8"?>
<!-- Generator: Adobe Adobe Illustrator 24.2.0, SVG Export Plug-In . SVG Version: 6.00 Build 0)  -->
<svg version="1.1" xmlns="http://www.w3.org/2000/svg" xmlns:xlink="http://www.w3.org/1999/xlink" x="0px" y="0px" width="1728px"
	 height="1296px" viewBox="0 0 1728 1296" style="enable-background:new 0 0 1728 1296;" xml:space="preserve">
<style type="text/css">
	.st0{fill:none;stroke:#CFFFFD;stroke-width:1000;stroke-miterlimit:10;}
	.st1{fill:#FFFFFF;stroke:#FFFFFF;stroke-miterlimit:10;}
	.st2{fill:#FFE46B;stroke:#000000;stroke-width:2;stroke-miterlimit:10;stroke-dasharray:0,0,0,0,0,0;}
	.st3{fill:none;stroke:#FFE46B;stroke-width:3;stroke-miterlimit:10;stroke-dasharray:0,0,0,0,0,0;}
	.st4{fill:#FFC933;}
	.st5{fill:none;}
	.st6{fill:none;stroke:#FFE46B;stroke-width:5;stroke-miterlimit:10;stroke-dasharray:0,0,0,0,0,0;}
	.st7{fill:none;stroke:#000000;stroke-width:2;stroke-miterlimit:10;stroke-dasharray:0,0,0,0,0,0;}
	.st8{fill:none;stroke:#000000;stroke-miterlimit:10;stroke-dasharray:0,0,0,0,0,0;}
	.st9{fill:none;stroke:#FFE46B;stroke-width:5;stroke-miterlimit:10;}
	.st10{fill:none;stroke:#000000;stroke-width:2;stroke-miterlimit:10;}
	.st11{fill:none;stroke:#000000;stroke-miterlimit:10;}
	.st12{fill:#D6D6D6;stroke:#B5FFFE;stroke-width:100;stroke-miterlimit:10;stroke-dasharray:0,0,0,0,0,0;}
</style>
<g id="Layer_4">
	<path class="st0" d="M318.5,691.84c-10.2,3.05-20.62,5.4-31.17,6.8c6.22-1.14,12.85-0.12,15.86,6.06C309,726,300,747,291,766
		c-10,24-22,48-33,72c-1,2,0,3-1,5c-12,23-20,47-27,72c-17,63-21,125-23,188c-1,28,1,54,6,82c5,36,18,67,28,102c1,5,2,10,3,15
		c0,1,2,3,2,4c4,20,8,37,13.05,55.93c-3-1.17-1.65-5.74,0,0C255,1360,251,1357,250,1352c0-5-2-10-3-14c-3-5-5-10-7-16
		c-15-52-21-103-28-156c-18-127-21-250-11-376c0-5,0-9,1-14c0-8,1-16,1-24c11-119,28-232,48-353c2-8,4-16,5-24c14-91,28-175,48-266
		c9-37,19-70,30-105c2-7,7-12,10-19c4-9,12-16,22-20c14-5,29-6,43,0c1,1,3,2,5,3c5,5,8,10,11,16c6,15,13,30,12,46c4,9,13,11,22,13
		c27,5,51,7,77,12c20,3,38,5,58,7c21,2,41,2,62,3c136,2,272-3,408,1c70,2,139,10,209,16c143,11,285,1,428,6c28,2,55,7,83,15
		c22,7,42,14,60,29c13,12,20,26,25,42c1,5,1,10,3,15c1,4,0,8,1,12c2,64-5,127-1,191c1,10,2,19,3,29c5,31,12,59,22,88
		c29,80,61,160,63,245c1,58,0,116-4,174c-4,57-12,113-13,170c-2,37,0,73-1,110c-2,41-4,83-22,121c-6,11-15,20-26,27
		c-25,14-51,20-79,23c-90,13-177,6-265,9c-47,1-96,3-140,23c-37,16-68,42-96.73,70.3"/>
	<path class="st0" d="M1279.96,1138.88c-106.7,58.63-203.7,129.63-295.7,214.63c-7,7-14,14-22,21c-2,2-4,4-5,6
		c-10,19-23,36-36.98,51.6c2.96-12.68,2.55-2.68,0,0c2.98-13.6,11.98-23.6,21.98-33.6c2-2,3-5,5-7c1-1,1-3,2-4c2-2,4-4,6-6
		c1-1,1-3,2-4c52-60,106-109,167-160c90-76,175-138,274-207c2-1,3-1,5-2c49-34,96-59,145-87c8-9,15-19,27-23c6-1,13,0,17.71,5.67
		c-26.03,18.49-2.77-2.76,0,0c-11.71,8.33-22.71,16.33-34.71,25.33c-40,28-74,51-113,79c-3,2-6,3-9,5c-13,9-23,18-36,27
		c-2,1-3,1-5,2c-87,63-164,120-242,190c-5,4-10,8-15,12c-34,32-67,61-100,94c-2,2-6,4-8,6c-18,18-34,34-52,52c-41,41-78,81-118,124
		c-2,3-4,6-6,9c-4,3-7,7-12.11,8.28c23.56-31.62,5.65-2.43,0,0c23.56-31.62,47.49-62.96,72.13-93.75
		c24.46-30.58,49.7-60.52,75.54-89.94c25.81-29.39,52.14-58.3,78.62-87.08c26.69-29,53.43-57.95,80.16-86.92
		c27.22-29.5,54.55-58.89,81.97-88.2c27.34-29.22,54.77-58.37,82.27-87.45c27.51-29.1,55.18-58.07,82.51-87.34
		c26.84-28.74,53.7-57.38,79.4-87.15c20.05-23.23,39.19-49.43,51.76-77.55c12.15-27.16,16.04-58.11-1.2-84.06
		c-14.94-22.49-40.39-35.35-65.29-43.72c-27.81-9.35-57.29-14.55-86.27-18.7c-38.97-5.58-78.31-7.92-117.63-9.1
		c-39.52-1.19-79.14-1.93-118.68-1.48c-38.97,0.44-77.94,2.48-116.66,6.99c-38.73,4.51-77.39,10.49-115.75,17.44
		c-38.32,6.94-76.41,15.27-113.91,25.8c-37.86,10.63-74.81,23.98-111.35,38.46c-36.36,14.41-72.62,29.18-108.66,44.37
		c-35.66,15.02-71.02,30.82-105.44,48.52c-15.45,7.95-30.76,16.17-46.39,23.77"/>
	<path class="st1" d="M329.62,698.11c24.03-21.4,45.44-45.74,63.61-72.3c28.68,18.79,64.86,23.27,98.91,19.26
		s66.62-15.86,98.82-27.62c5.87,6.69,4.39,17.52-0.92,24.67s-13.49,11.48-21.39,15.59c-35.15,18.26-70.3,36.51-105.45,54.77
		c-20.89,10.85-42.55,21.92-66.04,23.49c-27.41,1.82-55.38-10.5-72.53-31.95"/>
	<path class="st1" d="M1169.45,623.19c59.22,16.15,124.73,7.79,178.01-22.7c10.57,18.45,24.58,35.38,42.73,46.45
		s40.79,15.78,61.17,9.71c-26.14,32.52-64.47,55-105.61,61.95s-84.73-1.69-120.1-23.82c-15.37-9.62-29.12-21.59-42.68-33.62
		c-5.65-5.01-11.42-10.23-14.65-17.06c-3.23-6.82-3.28-15.73,1.89-21.23"/>
	<path class="st1" d="M695.15,447.68c56.6,39.13,122.56,67.76,191.36,69.21s140.3-27.58,179.24-84.31
		c-11.9,67.07,0.52,137.06,27.7,199.52c27.18,62.46,68.57,117.89,113.13,170.55c-18.09,40.44-51.92,73.59-92.72,90.85
		c-40.8,17.26-88.15,18.46-129.77,3.29c-20.05-7.31-40.28-18.45-61.36-15.16c-16.39,2.56-30.1,13.49-45.52,19.6
		c-41.66,16.51-87.76-3.7-132.26-8.99c-39.39-4.68-79.15,2.61-118.81,3.09c-39.67,0.48-82.42-7.44-109.87-36.08
		C618.65,747.7,681.38,600.49,690.93,449.4"/>
</g>
<g id="Layer_1">
	<path class="st2" d="M808.69,399.18c-2.79-9.16-10.78-19.67-10.78-19.67c-4.33-9.49-15.68-11.49-23.89-13.85
		c12.97-9.76,14.37-17.47,21.36-50.89c6.38,19.49,9.74,25.61,15.9,32.72c2.6,2.41,5.82,3.72,9.04,3.7c1.96-0.02,3.9-0.51,5.7-0.78
		c-4.09,5.48-8.25,11.09-10.72,17.94c-1.64,4.56-2.48,9.51-3.3,14.42C811.16,387.79,810.32,392.83,808.69,399.18z"/>
	<path class="st5" d="M950.6,804.6c0,0,5.73-0.45,4.4-0.07"/>
	<path class="st6" d="M756.68,305.73c70.94-18.56,144.65-28.73,215.66-10.63c14.96,3.82,30.13,9.11,42.4,20.59
		c3.02,2.83,6.04,6.49,6.37,11.22c0.3,4.28-1.77,8.39-4.52,10.92s-6.09,3.76-9.38,4.86c-53.13,17.8-109.14,13.3-163.84,20.16"/>
	<path class="st7" d="M1033.71,715.89c8.86-4.19,15.59-13.82,19.72-24.59c4.13-10.76,5.95-22.68,7.49-34.48
		c0.91,3.26,2.44,6.16,3.96,9.03c1.3,2.47,2.61,4.93,3.91,7.4c3.97,7.51,8,15.11,13.41,21.01c5.4,5.9,12.44,9.98,19.55,9.11"/>
	<path class="st8" d="M1035.94,716.92c7.8,0.97,14.52,7.09,20.75,13.1c2.38,2.3,4.75,4.62,6.92,7.23
		c7.52,9.07,12.2,21.28,15.69,33.67c-0.41-7,0.13-14.09,1.59-20.86c0.99-4.59,2.39-9.03,3.8-13.45c2.41-7.59,4.84-15.24,8.43-22.05
		c2.38-4.5,5.23-8.57,8.1-12.58"/>
	<path class="st7" d="M1035.94,716.92c7.8,0.97,14.52,7.09,20.75,13.1c2.38,2.3,4.75,4.62,6.92,7.23
		c7.52,9.07,12.2,21.28,15.69,33.67c-0.41-7,0.13-14.09,1.59-20.86c0.99-4.59,2.39-9.03,3.8-13.45c2.41-7.59,4.84-15.24,8.43-22.05
		c2.38-4.5,5.23-8.57,8.1-12.58"/>
	<path class="st7" d="M758.68,305.73c70.94-18.56,144.65-28.73,215.66-10.63c14.96,3.82,30.13,9.11,42.4,20.59
		c3.02,2.83,6.04,6.49,6.37,11.22c0.3,4.28-1.77,8.39-4.52,10.92s-6.09,3.76-9.38,4.86c-53.13,17.8-109.14,13.3-163.84,20.16"/>
	<path class="st7" d="M632.43,585.52c-47.34,27.63-99.54,41.89-151.68,41.44c-31.93-0.28-63.65-5.98-95.37-10.65
		c-2.71-0.4-5.6-0.75-8.03,0.82c-1.84,1.19-3.16,3.33-4.43,5.38c-23.49,37.86-53.39,69.32-87.1,91.65"/>
	<path class="st7" d="M357.85,733.39c23.82,26.8,59.22,32.97,90.05,22.68s57.53-35.11,79.84-63.91"/>
	<path class="st7" d="M1132.56,585.12c32.62,19.73,69.7,23.87,105.86,24.51c14.35,0.26,28.86-0.01,42.82-4.25
		c24.34-7.39,45.36-26.29,65.46-45.16c29.15,45.51,73.84,74.51,120.07,77.92"/>
	<path class="st7" d="M1263.97,739.77c9.46,7.51,20.53,9.49,31.32,10.56c34.78,3.46,71.42-1.74,100.87-28.48
		c4.99-4.54,9.76-9.68,13.82-15.84"/>
	<path class="st8" d="M761.17,733.17c-0.69,9.26-1.22,18.53-1.61,27.81c-0.02,0.48-0.04,0.98,0.1,1.43c0.27,0.92,1.14,1.4,1.92,1.3
		c0.13-0.02,0.27-0.05,0.35-0.19c0.07-0.11,0.07-0.27,0.07-0.41c0.01-8.86,0.48-17.72,1.42-26.5c0.09-0.85,0.18-1.73,0-2.55
		c-0.18-0.83-0.72-1.59-1.4-1.63c-0.68-0.04-1.33,0.93-1.02,1.69c0.11,0.26,0.3,0.46,0.4,0.72c0.15,0.37,0.11,0.81,0.07,1.22
		c-0.26,2.6-0.51,5.19-0.77,7.79"/>
	<path class="st8" d="M797.71,737.18c-0.88,9.23-1.61,18.48-2.19,27.75c-0.03,0.48-0.06,0.97,0.07,1.43
		c0.25,0.93,1.11,1.43,1.89,1.37c0.13-0.01,0.27-0.04,0.36-0.17c0.07-0.11,0.08-0.26,0.08-0.41c0.2-8.86,0.86-17.7,1.97-26.45
		c0.11-0.85,0.22-1.72,0.05-2.55c-0.17-0.83-0.69-1.61-1.36-1.68s-1.35,0.88-1.06,1.66c0.1,0.27,0.29,0.47,0.39,0.74
		c0.14,0.37,0.09,0.81,0.05,1.22c-0.31,2.59-0.62,5.17-0.93,7.76"/>
</g>
<g id="Layer_2">
	<path class="st9" d="M1029.82,412.42c-45.1,31.68-92.63,46.42-143.75,52.33c-49.25,5.69-100.11,2.19-145.37-25.15
		c-23.02-13.9-43.95-33.39-60.7-57.78c-13.52,146.89-66.55,286.99-146.91,394.16c-22.49,29.99-47.12,57.4-73.6,81.63"/>
	<path class="st9" d="M1028.33,413.39c17.01-12.44,32.5-27.95,45.54-46.12c14.13,146.89,69.55,286.99,153.54,394.16
		c23.5,29.99,49.25,57.4,76.92,81.63"/>
	<path class="st10" d="M1029.82,412.42c-45.1,31.68-92.63,46.42-143.75,52.33c-49.25,5.69-100.11,2.19-145.37-25.15
		c-23.02-13.9-43.95-33.39-60.7-57.78c-13.52,146.89-66.55,286.99-146.91,394.16c-22.49,29.99-47.12,57.4-73.6,81.63"/>
	<path class="st10" d="M1028.33,413.39c17.01-12.44,32.5-27.95,45.54-46.12c14.13,146.89,69.55,286.99,153.54,394.16
		c23.5,29.99,49.25,57.4,76.92,81.63"/>
	<path class="st10" d="M892.9,706.68c-0.34,27.95,0.66,50.92,2.7,83.21c0.68,10.72,2.88,14.12,5.15,16.29
		c3.28,3.14,7.17,3.26,11.05,1.97c5.54-1.83,7.13-9.74,7.68-16.46c2.44-29.88,0.88-60.3-0.89-90.58c-0.33-5.56-0.8-11.53-3.89-16.02
		c-4.7-6.83-14.96-6.6-18.6,0.4C892.79,691.86,892.95,702.83,892.9,706.68z"/>
	<path class="st10" d="M960.65,706.68c-0.34,27.95,0.66,50.92,2.7,83.21c0.68,10.72,2.88,14.12,5.15,16.29
		c3.28,3.14,7.17,3.26,11.05,1.97c5.54-1.83,7.13-9.74,7.68-16.46c2.44-29.88,0.88-60.3-0.89-90.58c-0.33-5.56-0.8-11.53-3.89-16.02
		c-4.7-6.83-14.96-6.6-18.6,0.4C960.53,691.86,960.7,702.83,960.65,706.68z"/>
</g>
<g id="Layer_3">
	<path class="st7" d="M661.27,827.71c11.67-1.36,21.17-12.28,28.59-23.74c29-44.78,39.77-104.88,39-162.75
		c5.72,14.38,14.33,28.27,25.91,37.3c14.78,11.52,33.7,13.85,50.13,6.77c16.43-7.08,30.16-23.28,38.78-42.8
		c-8.25,36.7-7.99,76.83,2.83,112.45c10.82,35.62,32.54,66.27,60.27,81.32"/>
	<path class="st5" d="M762.13,733.57c-0.05,1.92-0.09,3.83-0.14,5.75C762.07,738.52,762.15,737.73,762.13,733.57z"/>
	<path class="st8" d="M761.39,763.03c0.19-2.54-0.11-5.08-0.07-7.63c0.02-1.31,0.14-2.62,0.26-3.93c0.31-3.45,0.62-6.91,0.93-10.36
		c0.06-0.63,0.11-1.26,0.17-1.88c0.09-1.02,0.18-2.05,0.2-3.07c0.02-0.94-0.03-1.91-0.4-2.78c-0.07-0.16-0.17-0.34-0.34-0.39
		c-0.23-0.08-0.48,0.13-0.54,0.37c-0.06,0.24,0.01,0.49,0.08,0.73c0.24,0.78,0.48,1.57,0.71,2.35c-0.21-0.57-0.27-1.2-0.17-1.81"/>
	<path class="st8" d="M762.34,736.03c0,1.04,0.01,2.09,0.01,3.13c0,0.84,0,1.71-0.33,2.48c0.02-1.36-0.06-2.72-0.24-4.07
		c-0.47,0.69-0.32,1.6-0.23,2.43c0.37,3.32-0.44,6.69,0,10c-0.14-0.92-0.29-1.84-0.43-2.77c-0.18-1.18-0.37-2.37-0.23-3.55
		c-0.08,2.32-0.12,4.64-0.13,6.96c-0.01,1.95,0.01,3.91,0.03,5.86c0.01,0.82,0.01,1.65,0.02,2.47c0.01,1.25,0.02,2.51,0.21,3.75"/>
	<path class="st8" d="M759.97,755.91c0.27,1.39,0.13,2.82,0.15,4.23c0.01,0.75,0.07,1.55,0.5,2.17c0.13,0.18,0.3,0.35,0.52,0.39
		c0.22,0.04,0.48-0.12,0.48-0.34"/>
	<path class="st8" d="M760.91,762.94c0.16,0.13,0.36,0.23,0.56,0.27c0.07-0.09,0.13-0.19,0.16-0.3"/>
	<path class="st8" d="M796.07,765.49c0.03,0.39,0.07,0.81,0.32,1.11c0.25,0.3,0.78,0.39,1.01,0.08c0.13-0.17,0.12-0.41,0.11-0.62
		c-0.22-5.8,0.36-11.61,0.94-17.39c0.21-2.08,0.42-4.16,0.63-6.25c0.16-1.57,0.32-3.16,0.22-4.73"/>
	<path class="st8" d="M796.31,765.88c0-9.63,1.75-19.18,2-28.8c0.42,0.11,0.76,0.46,0.86,0.88"/>
	<path class="st8" d="M798.82,738.31c-0.08,2.02-0.17,4.05-0.25,6.07c0.04-2.31,0.1-4.61,0.24-6.89c0.05,0.71-0.07,1.42-0.17,2.13
		c-0.9,5.99-1.29,12.06-1.16,18.11c0.01-0.07,0.03-0.14,0.04-0.22"/>
	<path class="st8" d="M796.75,766.6c0.49-2.59-0.28-5.31,0.27-7.89"/>
</g>
<g id="Layer_5">
</g>
</svg>
